# xmcd
#
# Track frame offsets:
#	150
#	15046
#	30357
#	52515
#	70493
#	87662
#	108568
#	126732
#	147743
#	167814
#	189682
#	204556
#	222163
#	239945
#	253051
#	272500
#	291234
#	310101
#	328787
#	341922
#
# Disc length: 4722 seconds
#
# Revision: 2
# Processed by: cddbd v1.5.2PL0 Copyright (c) Steve Scherf et al.
# Submitted via: audiograbber 1.83.01
#
DISCID=3f127014
DTITLE=Fredrik Backman - Ein Mann namens Ove CD 2
DYEAR=2014
DGENRE=Hörbuch
TTITLE0=020
TTITLE1=021
TTITLE2=022
TTITLE3=023
TTITLE4=024
TTITLE5=025
TTITLE6=026
TTITLE7=027
TTITLE8=028
TTITLE9=029
TTITLE10=030
TTITLE11=031
TTITLE12=032
TTITLE13=033
TTITLE14=034
TTITLE15=035
TTITLE16=036
TTITLE17=037
TTITLE18=038
TTITLE19=039
EXTD=
EXTT0=
EXTT1=
EXTT2=
EXTT3=
EXTT4=
EXTT5=
EXTT6=
EXTT7=
EXTT8=
EXTT9=
EXTT10=
EXTT11=
EXTT12=
EXTT13=
EXTT14=
EXTT15=
EXTT16=
EXTT17=
EXTT18=
EXTT19=
PLAYORDER=
